<svg width="158" height="28" viewBox="0 0 158 28" fill="none" xmlns="http://www.w3.org/2000/svg">
<path d="M18.6005 14.4947C18.0683 13.9628 17.4696 13.4974 16.7379 13.1649C17.2701 12.8989 17.6692 12.5665 18.0683 12.234C19.2657 11.1036 19.7978 9.7073 19.7978 7.9785C19.7978 6.71515 19.4652 5.58478 18.8665 4.5209C18.2679 3.52352 17.3366 2.72561 16.1392 2.12718C14.9419 1.52875 13.6115 1.19629 12.015 1.19629H5.49614V5.98373H10.4186C11.2833 5.98373 11.9485 6.18321 12.4807 6.64865C13.0128 7.04761 13.2789 7.71253 13.2789 8.64342C13.2789 9.50782 13.0128 10.1727 12.4807 10.6382C11.9485 11.0371 11.2168 11.3031 10.4186 11.3031H5.49614V15.9576H10.8177C11.4829 15.9576 12.0816 16.0906 12.5472 16.3565C13.0128 16.6225 13.4119 16.955 13.678 17.4204C13.9441 17.8858 14.0771 18.4178 14.0771 19.0162C14.0771 19.9471 13.7445 20.6785 13.2124 21.2105C12.6137 21.8089 11.8155 22.0749 10.8177 22.0749H5.49614V26.8623H11.749C13.545 26.8623 15.0749 26.5298 16.4053 25.8649C17.7357 25.2 18.7335 24.3356 19.4652 23.2052C20.1969 22.0749 20.5295 20.8115 20.5295 19.3487C20.5295 17.4204 19.9308 15.8246 18.6005 14.4947ZM0.374146 1.26278V26.8623H6.76001V1.26278H0.374146Z" fill="white"/>
<path d="M38.094 1.26278V17.1544C38.094 18.0853 37.8945 18.8167 37.4954 19.4817C37.0962 20.1466 36.5641 20.612 35.9654 20.9445C35.3002 21.2769 34.5685 21.4764 33.7037 21.4764C32.839 21.4764 32.1073 21.2769 31.3756 20.9445C30.7104 20.612 30.1782 20.0801 29.7791 19.4152C29.38 18.7502 29.1804 17.9523 29.1804 17.0214V1.19629H22.728V16.6225C22.728 18.6838 23.1937 20.479 24.1249 22.0749C25.0562 23.6707 26.3201 24.934 27.9831 25.8649C29.6461 26.7958 31.5086 27.1948 33.7037 27.1948C35.8989 27.1948 37.828 26.7293 39.4244 25.8649C41.0874 24.934 42.2848 23.7372 43.216 22.1414C44.1473 20.5455 44.6129 18.6838 44.6129 16.689V1.26278H38.094Z" fill="white"/>
<path d="M65.2966 15.8913C64.831 14.9604 64.2988 14.229 63.5671 13.6305C62.8354 13.0321 62.1037 12.5002 61.2389 12.1677C60.3742 11.7687 59.5094 11.4363 58.7112 11.1703C57.8464 10.9043 57.0482 10.5719 56.383 10.3059C55.6513 10.0399 55.1191 9.70748 54.6535 9.30853C54.1879 8.97606 53.9883 8.51061 53.9883 7.91218C53.9883 7.31375 54.2544 6.9148 54.72 6.58234C55.2522 6.24988 55.9174 6.1169 56.7821 6.1169C57.7134 6.1169 58.5782 6.31638 59.3764 6.71533C60.1746 7.11429 60.9729 7.71271 61.7046 8.44412L65.8288 4.3881C64.831 3.25774 63.5006 2.39333 61.9707 1.7949C60.4407 1.12998 58.7112 0.864014 56.8486 0.864014C54.9861 0.864014 53.3896 1.19647 51.9927 1.7949C50.5958 2.39333 49.5315 3.32422 48.7333 4.45459C47.935 5.58496 47.5359 6.9813 47.5359 8.6436C47.5359 9.90696 47.7355 10.9708 48.2011 11.8352C48.6667 12.6996 49.1989 13.431 49.9306 14.0295C50.6623 14.6279 51.4606 15.0934 52.2588 15.4923C53.1236 15.8913 53.9883 16.2237 54.8531 16.4897C55.7178 16.7557 56.516 17.0881 57.1812 17.3541C57.913 17.6866 58.4451 18.019 58.9108 18.418C59.3099 18.8169 59.5759 19.3489 59.5759 19.9473C59.5759 20.6122 59.3099 21.1441 58.7112 21.4766C58.1125 21.8756 57.3143 22.0085 56.1834 22.0085C54.9196 22.0085 53.7888 21.8091 52.7244 21.2771C51.7267 20.7452 50.7954 20.0803 49.8641 19.1494L45.8064 23.2719C47.0703 24.6682 48.5337 25.7321 50.1302 26.3305C51.7266 26.9955 53.5892 27.3279 55.7178 27.3279C58.9773 27.3279 61.4385 26.663 63.2345 25.2002C65.0305 23.8038 65.9618 21.8091 65.9618 19.2824C65.9618 17.9525 65.7623 16.8221 65.2966 15.8913Z" fill="white"/>
<path d="M84.1883 1.26294V26.8625H90.6407V1.26294H84.1883ZM72.2148 11.0373V16.4232H86.5165V11.0373H72.2148ZM75.0087 1.26294H68.5563V26.8625H75.0087V11.0373H72.614L75.0087 8.37762V1.26294Z" fill="white"/>
<path d="M94.4985 1.26294V26.8625H100.951V1.26294H94.4985Z" fill="white"/>
<path d="M127.958 8.84306C127.293 7.31374 126.295 5.9174 125.098 4.78703C123.834 3.65666 122.437 2.79227 120.774 2.19384C119.111 1.59541 117.315 1.26294 115.319 1.26294H108.867V6.8483H115.253C116.716 6.8483 117.98 7.11427 119.044 7.7127C120.109 8.24464 120.907 9.04254 121.505 10.1729C122.104 11.2368 122.37 12.5666 122.37 14.0959C122.37 15.6918 122.104 17.0216 121.505 18.0855C120.907 19.1494 120.109 20.0138 119.044 20.5457C117.98 21.0776 116.716 21.4101 115.253 21.4101H109.133V26.9955H115.386C117.315 26.9955 119.111 26.663 120.774 26.0646C122.437 25.4661 123.834 24.6017 125.098 23.4714C126.295 22.341 127.293 21.0111 127.958 19.4153C128.623 17.886 128.956 16.0907 128.956 14.1624C129.022 12.1012 128.69 10.3724 127.958 8.84306ZM104.809 1.26294V26.8625H111.261V21.2771H108.867L111.261 18.6174V1.26294H104.809Z" fill="white"/>
<path d="M156.561 8.77668C155.896 7.18086 154.898 5.78452 153.701 4.58766C152.437 3.3908 151.04 2.45991 149.377 1.79499C147.714 1.13007 145.918 0.797607 143.923 0.797607C141.927 0.797607 140.131 1.13007 138.468 1.79499C136.805 2.45991 135.342 3.3908 134.144 4.58766C132.88 5.78452 131.949 7.18086 131.284 8.77668C130.619 10.3725 130.286 12.1013 130.286 13.9631C130.286 15.8249 130.619 17.6201 131.35 19.216C132.082 20.8783 133.013 22.2746 134.277 23.4715C135.541 24.6683 136.938 25.5992 138.601 26.2641C140.264 26.9291 142.127 27.2615 144.056 27.2615C145.985 27.2615 147.781 26.9291 149.444 26.2641C151.107 25.5992 152.504 24.6683 153.768 23.4715C154.965 22.2746 155.963 20.8118 156.628 19.216C157.293 17.6201 157.626 15.8913 157.626 13.9631C157.626 12.1678 157.293 10.439 156.561 8.77668ZM151.572 17.8861L147.714 21.6762L143.856 17.8196L139.998 21.6762L136.206 17.8861L140.065 14.0296L136.206 10.173L139.998 6.31647L143.856 10.173L147.714 6.31647L151.572 10.173L147.714 14.0296L151.572 17.8861Z" fill="white"/>
</svg>
