<svg width="20" height="21" viewBox="0 0 20 21" fill="none" xmlns="http://www.w3.org/2000/svg">
<path d="M10 19.5997C9.889 19.5997 9.79183 19.5929 9.7085 19.5792C9.62517 19.5652 9.54183 19.5444 9.4585 19.5167C7.48617 18.8917 5.875 17.6694 4.625 15.8497C3.375 14.0304 2.75 12.0444 2.75 9.89173V6.01673C2.75 5.5584 2.8785 5.13823 3.1355 4.75623C3.3925 4.37423 3.73617 4.1069 4.1665 3.95423L9.229 2.05823C9.493 1.9609 9.75 1.91223 10 1.91223C10.25 1.91223 10.507 1.9609 10.771 2.05823L15.8335 3.95423C16.2638 4.1069 16.611 4.37423 16.875 4.75623C17.139 5.13823 17.271 5.5584 17.271 6.01673V9.89173C17.271 12.0444 16.6425 14.0304 15.3855 15.8497C14.1285 17.6694 12.5138 18.8917 10.5415 19.5167C10.5415 19.5027 10.361 19.5304 10 19.5997Z" fill="white"/>
</svg>
