<svg width="461" height="431" viewBox="0 0 461 431" fill="none" xmlns="http://www.w3.org/2000/svg">
<rect width="460" height="431" transform="translate(0.561523)" fill="#FF595B"/>
<path d="M99.5537 216.437C98.3995 215.283 97.1009 214.274 95.5138 213.552C96.6681 212.976 97.5338 212.254 98.3995 211.533C100.997 209.082 102.151 206.053 102.151 202.303C102.151 199.563 101.429 197.111 100.131 194.803C98.8323 192.64 96.8124 190.909 94.2153 189.611C91.6182 188.313 88.7326 187.592 85.2698 187.592H71.1302V197.976H81.8071C83.6827 197.976 85.1255 198.409 86.2798 199.419C87.434 200.284 88.0112 201.726 88.0112 203.745C88.0112 205.62 87.434 207.062 86.2798 208.072C85.1255 208.937 83.5385 209.514 81.8071 209.514H71.1302V219.61H82.6727C84.1156 219.61 85.4141 219.898 86.4241 220.475C87.4341 221.052 88.2997 221.773 88.8769 222.783C89.454 223.792 89.7426 224.946 89.7426 226.244C89.7426 228.263 89.0212 229.85 87.8669 231.003C86.5684 232.301 84.837 232.878 82.6727 232.878H71.1302V243.262H84.6927C88.5883 243.262 91.9068 242.541 94.7924 241.099C97.6781 239.657 99.8423 237.782 101.429 235.33C103.016 232.878 103.738 230.138 103.738 226.965C103.738 222.783 102.439 219.321 99.5537 216.437ZM60.0205 187.736V243.262H73.8716V187.736H60.0205Z" fill="white"/>
<path d="M141.835 187.736V222.206C141.835 224.225 141.402 225.811 140.536 227.254C139.671 228.696 138.517 229.705 137.218 230.427C135.775 231.148 134.188 231.58 132.312 231.58C130.437 231.58 128.85 231.148 127.263 230.427C125.82 229.705 124.665 228.552 123.8 227.109C122.934 225.667 122.501 223.936 122.501 221.917V187.592H108.506V221.052C108.506 225.523 109.516 229.417 111.536 232.878C113.556 236.34 116.297 239.08 119.904 241.099C123.511 243.118 127.551 243.983 132.312 243.983C137.074 243.983 141.258 242.974 144.721 241.099C148.328 239.08 150.925 236.484 152.945 233.023C154.965 229.561 155.975 225.523 155.975 221.196V187.736H141.835Z" fill="white"/>
<path d="M200.839 219.466C199.829 217.447 198.675 215.861 197.088 214.563C195.501 213.264 193.914 212.111 192.038 211.39C190.162 210.524 188.287 209.803 186.555 209.226C184.68 208.649 182.948 207.928 181.505 207.351C179.918 206.774 178.764 206.053 177.754 205.188C176.744 204.467 176.311 203.457 176.311 202.159C176.311 200.861 176.888 199.996 177.898 199.275C179.053 198.554 180.495 198.265 182.371 198.265C184.391 198.265 186.267 198.698 187.998 199.563C189.729 200.429 191.461 201.727 193.048 203.313L201.993 194.516C199.829 192.064 196.944 190.189 193.625 188.891C190.307 187.449 186.555 186.872 182.515 186.872C178.475 186.872 175.013 187.593 171.983 188.891C168.953 190.189 166.644 192.208 164.913 194.66C163.182 197.112 162.316 200.14 162.316 203.746C162.316 206.486 162.749 208.794 163.759 210.668C164.769 212.543 165.923 214.13 167.51 215.428C169.097 216.726 170.828 217.735 172.56 218.601C174.436 219.466 176.311 220.187 178.187 220.764C180.062 221.341 181.794 222.062 183.237 222.639C184.824 223.36 185.978 224.081 186.988 224.947C187.854 225.812 188.431 226.966 188.431 228.264C188.431 229.706 187.854 230.86 186.555 231.581C185.257 232.446 183.525 232.735 181.072 232.735C178.331 232.735 175.878 232.302 173.57 231.148C171.406 229.994 169.386 228.552 167.366 226.533L158.564 235.475C161.306 238.504 164.48 240.811 167.943 242.109C171.406 243.551 175.445 244.272 180.063 244.272C187.132 244.272 192.471 242.83 196.366 239.657C200.262 236.629 202.282 232.302 202.282 226.821C202.282 223.937 201.849 221.485 200.839 219.466Z" fill="white"/>
<path d="M241.814 187.737V243.262H255.81V187.737H241.814ZM215.844 208.937V220.619H246.864V208.937H215.844ZM221.904 187.737H207.908V243.262H221.904V208.937H216.709L221.904 203.168V187.737Z" fill="white"/>
<path d="M264.178 187.737V243.262H278.173V187.737H264.178Z" fill="white"/>
<path d="M336.751 204.178C335.308 200.861 333.144 197.832 330.547 195.38C327.806 192.929 324.776 191.054 321.169 189.756C317.562 188.458 313.666 187.737 309.338 187.737H295.342V199.851H309.193C312.368 199.851 315.109 200.428 317.417 201.726C319.726 202.88 321.457 204.611 322.756 207.062C324.054 209.37 324.631 212.255 324.631 215.572C324.631 219.033 324.054 221.917 322.756 224.225C321.457 226.533 319.726 228.407 317.417 229.561C315.109 230.715 312.368 231.436 309.193 231.436H295.919V243.551H309.482C313.666 243.551 317.562 242.83 321.169 241.532C324.776 240.234 327.806 238.359 330.547 235.907C333.144 233.455 335.308 230.571 336.751 227.109C338.194 223.792 338.915 219.898 338.915 215.716C339.06 211.245 338.338 207.495 336.751 204.178ZM286.541 187.737V243.262H300.536V231.148H295.342L300.536 225.379V187.737H286.541Z" fill="white"/>
<path d="M398.794 204.034C397.351 200.573 395.187 197.544 392.59 194.948C389.849 192.352 386.819 190.333 383.212 188.891C379.605 187.448 375.709 186.727 371.381 186.727C367.052 186.727 363.157 187.448 359.55 188.891C355.942 190.333 352.768 192.352 350.171 194.948C347.43 197.544 345.41 200.573 343.967 204.034C342.524 207.495 341.803 211.245 341.803 215.283C341.803 219.322 342.524 223.216 344.111 226.677C345.698 230.283 347.718 233.311 350.46 235.907C353.201 238.503 356.231 240.522 359.838 241.965C363.445 243.407 367.485 244.128 371.669 244.128C375.853 244.128 379.749 243.407 383.356 241.965C386.963 240.522 389.993 238.503 392.734 235.907C395.332 233.311 397.496 230.138 398.939 226.677C400.381 223.216 401.103 219.466 401.103 215.283C401.103 211.389 400.381 207.64 398.794 204.034ZM387.973 223.793L379.605 232.013L371.236 223.648L362.868 232.013L354.644 223.793L363.012 215.428L354.644 207.063L362.868 198.698L371.236 207.063L379.605 198.698L387.973 207.063L379.605 215.428L387.973 223.793Z" fill="white"/>
</svg>
