<svg width="20" height="21" viewBox="0 0 20 21" fill="none" xmlns="http://www.w3.org/2000/svg">
<path d="M8.52148 18.5581L7.25048 17.3916C5.63948 15.9193 4.20898 14.4539 2.95898 12.9956C1.70898 11.5373 1.08398 9.95394 1.08398 8.24561C1.08398 6.80127 1.55965 5.59644 2.51098 4.63111C3.46232 3.66577 4.65332 3.18311 6.08398 3.18311C6.79232 3.18311 7.47982 3.32561 8.14648 3.61061C8.81315 3.89527 9.42415 4.35694 9.97948 4.99561C10.5908 4.35694 11.2158 3.89527 11.8545 3.61061C12.4935 3.32561 13.1672 3.18311 13.8755 3.18311C15.3062 3.18311 16.5075 3.66577 17.4795 4.63111C18.4518 5.59644 18.938 6.80127 18.938 8.24561C18.938 9.95394 18.306 11.5373 17.042 12.9956C15.7783 14.4539 14.334 15.9263 12.709 17.4126L11.4795 18.5581C11.0492 18.9331 10.5527 19.1206 9.98998 19.1206C9.42765 19.1206 8.93815 18.9331 8.52148 18.5581Z" fill="white"/>
</svg>
