<svg width="21" height="20" viewBox="0 0 21 20" fill="none" xmlns="http://www.w3.org/2000/svg">
<path d="M10.8535 17.854C10.6452 17.6597 10.541 17.434 10.541 17.177C10.541 16.92 10.6452 16.6873 10.8535 16.479L13.1245 14.2085L6.22852 7.3125L3.95802 9.5835C3.76335 9.79184 3.53418 9.8925 3.27052 9.8855C3.00652 9.8785 2.77735 9.77784 2.58302 9.5835C2.38835 9.40284 2.29102 9.17367 2.29102 8.896C2.29102 8.618 2.38835 8.38884 2.58302 8.2085L3.06202 7.729L2.64552 7.3335C2.45085 7.11117 2.35352 6.85067 2.35352 6.552C2.35352 6.25334 2.45085 5.99984 2.64552 5.7915L3.68702 4.771L3.47852 4.5835C3.27018 4.36117 3.16602 4.10067 3.16602 3.802C3.16602 3.50334 3.27018 3.24984 3.47852 3.0415C3.70085 2.83317 3.96135 2.729 4.26002 2.729C4.55868 2.729 4.81218 2.83317 5.02052 3.0415L5.20802 3.25L6.22852 2.2085C6.43685 2.01384 6.69035 1.9165 6.98902 1.9165C7.28768 1.9165 7.54818 2.01384 7.77052 2.2085L8.16602 2.625L8.66602 2.146C8.86068 1.95134 9.08635 1.854 9.34302 1.854C9.60002 1.854 9.82585 1.95134 10.0205 2.146C10.2288 2.34034 10.333 2.566 10.333 2.823C10.333 3.08 10.2288 3.31267 10.0205 3.521L7.74952 5.771L14.666 12.6875L16.916 10.4165C17.1107 10.2082 17.3433 10.104 17.614 10.104C17.885 10.104 18.1177 10.2082 18.312 10.4165C18.5063 10.5972 18.6035 10.823 18.6035 11.094C18.6035 11.3647 18.5063 11.5903 18.312 11.771L17.812 12.271L18.2285 12.6665C18.4232 12.8888 18.5205 13.1493 18.5205 13.448C18.5205 13.7467 18.4232 14.0002 18.2285 14.2085L17.187 15.25L17.3745 15.4375C17.5828 15.6458 17.687 15.9028 17.687 16.2085C17.687 16.5138 17.5828 16.7638 17.3745 16.9585C17.1662 17.1805 16.9162 17.2915 16.6245 17.2915C16.3328 17.2915 16.0758 17.1805 15.8535 16.9585L15.666 16.75L14.6455 17.7915C14.4372 17.9862 14.1837 18.0835 13.885 18.0835C13.5863 18.0835 13.3258 17.9862 13.1035 17.7915L12.708 17.375L12.208 17.854C12.0133 18.0487 11.7877 18.146 11.531 18.146C11.274 18.146 11.0482 18.0487 10.8535 17.854Z" fill="white"/>
</svg>
