<svg width="20" height="20" viewBox="0 0 20 20" fill="none" xmlns="http://www.w3.org/2000/svg">
<path d="M8.72947 18.0835C8.5768 18.0835 8.4588 18.0313 8.37547 17.927C8.29213 17.823 8.2643 17.6945 8.29197 17.5415L9.10447 11.771H5.85447C5.66013 11.771 5.5318 11.7015 5.46947 11.5625C5.4068 11.4235 5.43097 11.2707 5.54197 11.104L10.7715 2.229C10.8131 2.132 10.886 2.05216 10.99 1.9895C11.0943 1.92716 11.202 1.896 11.313 1.896C11.4656 1.896 11.5836 1.9515 11.667 2.0625C11.7503 2.1735 11.7781 2.2985 11.7505 2.4375L10.938 8.2085H14.167C14.3476 8.2085 14.4726 8.27783 14.542 8.4165C14.6116 8.5555 14.5978 8.70833 14.5005 8.875L9.29197 17.771C9.23663 17.868 9.1568 17.9443 9.05247 18C8.94847 18.0557 8.8408 18.0835 8.72947 18.0835Z" fill="white"/>
</svg>
