<svg width="201" height="37" viewBox="0 0 201 37" fill="none" xmlns="http://www.w3.org/2000/svg">
<path d="M29.002 11.7099C28.1724 9.83828 27.0202 8.19491 25.4993 6.82543C23.9784 5.45596 22.227 4.40605 20.1992 3.67567C18.1713 2.94528 15.9591 2.58008 13.5625 2.58008H5.68145V9.29049H13.5164C15.2677 9.29049 16.7887 9.65569 18.0791 10.2948C19.3696 10.9795 20.3835 11.9381 21.0748 13.2163C21.8122 14.4945 22.1809 16.0922 22.1809 17.9181C22.1809 19.7898 21.8122 21.4331 21.1209 22.7113C20.4296 24.0351 19.4157 25.0394 18.1252 25.6785C16.8347 26.3632 15.2677 26.6828 13.5164 26.6828H6.05012V33.3932H13.6546C16.0512 33.3932 18.2174 33.028 20.1992 32.2976C22.227 31.5672 23.9784 30.5173 25.4532 29.1478C26.9741 27.7784 28.1263 26.135 28.9559 24.2634C29.7855 22.3918 30.2002 20.2919 30.2002 17.9638C30.2924 15.6814 29.8315 13.5815 29.002 11.7099ZM0.75 2.58008V33.4845H8.63109V26.7741H5.72752L8.63109 23.533V2.58008H0.75Z" fill="black"/>
<path d="M63.8445 11.6642C63.015 9.70128 61.8628 8.01225 60.3419 6.59713C58.821 5.13636 57.0696 3.99515 55.0417 3.21912C53.0139 2.44308 50.8016 2.03223 48.4051 2.03223C46.0085 2.03223 43.7963 2.44308 41.7684 3.21912C39.7405 4.0408 37.9892 5.13636 36.5144 6.59713C34.9935 8.01225 33.8413 9.74693 33.0117 11.6642C32.1821 13.5815 31.7673 15.6813 31.7673 17.9638C31.7673 20.2462 32.1821 22.346 33.0578 24.309C33.9335 26.2719 35.0857 27.9609 36.6066 29.4217C38.1275 30.8824 39.8788 32.0237 41.9067 32.7997C43.9346 33.6214 46.1468 34.0322 48.5434 34.0322C50.9399 34.0322 53.106 33.6214 55.1339 32.8453C57.1618 32.0693 58.867 30.9281 60.3879 29.4673C61.8628 28.0066 63.0149 26.2719 63.8906 24.3546C64.7202 22.4374 65.135 20.2919 65.135 18.0551C65.0889 15.727 64.6741 13.6271 63.8445 11.6642ZM57.7609 22.62L53.1061 27.2305L48.4051 22.5743L43.7502 27.2305L39.0953 22.62L43.7963 17.9638L39.0953 13.3075L43.7502 8.697L48.4511 13.3532L53.1522 8.697L57.807 13.3075L53.1061 17.9638L57.7609 22.62Z" fill="black"/>
<path d="M88.742 28.0322H100.382V25.8722H91.094V20.1362H99.902V17.9762H91.094V12.3122H100.382V10.1522H88.742V28.0322ZM101.569 28.0322H104.305L107.449 23.4002L110.593 28.0322H113.281L108.793 21.5522L113.305 15.0962H110.593L107.449 19.7042L104.281 15.0962H101.593L106.105 21.5522L101.569 28.0322ZM120.822 28.3202C121.67 28.3202 122.462 28.1682 123.198 27.8642C123.95 27.5602 124.598 27.1442 125.142 26.6162C125.686 26.0882 126.094 25.4962 126.366 24.8402L124.374 23.8322C124.07 24.5362 123.606 25.1042 122.982 25.5362C122.374 25.9522 121.654 26.1602 120.822 26.1602C120.038 26.1602 119.326 25.9602 118.686 25.5602C118.062 25.1602 117.566 24.6162 117.198 23.9282C116.83 23.2242 116.646 22.4402 116.646 21.5762C116.646 20.6802 116.83 19.8882 117.198 19.2002C117.566 18.5122 118.062 17.9682 118.686 17.5682C119.326 17.1682 120.038 16.9682 120.822 16.9682C121.638 16.9682 122.358 17.1842 122.982 17.6162C123.606 18.0322 124.07 18.5762 124.374 19.2482L126.366 18.2882C126.094 17.6162 125.678 17.0162 125.118 16.4882C124.574 15.9602 123.934 15.5522 123.198 15.2642C122.462 14.9602 121.67 14.8082 120.822 14.8082C119.558 14.8082 118.43 15.1042 117.438 15.6962C116.462 16.2722 115.694 17.0722 115.134 18.0962C114.574 19.1042 114.294 20.2562 114.294 21.5522C114.294 22.8322 114.574 23.9842 115.134 25.0082C115.694 26.0322 116.462 26.8402 117.438 27.4322C118.43 28.0242 119.558 28.3202 120.822 28.3202ZM129.283 28.0322H131.515V20.3762C131.515 19.3202 131.811 18.4882 132.403 17.8802C133.011 17.2722 133.763 16.9682 134.659 16.9682C135.555 16.9682 136.291 17.2722 136.867 17.8802C137.459 18.4722 137.755 19.3042 137.755 20.3762V28.0322H140.011V19.6562C140.011 18.7282 139.795 17.9042 139.363 17.1842C138.947 16.4482 138.371 15.8722 137.635 15.4562C136.915 15.0242 136.091 14.8082 135.163 14.8082C134.379 14.8082 133.667 14.9682 133.027 15.2882C132.403 15.5922 131.899 16.0322 131.515 16.6082V9.86423H129.283V28.0322ZM146.997 28.3202C147.941 28.3202 148.789 28.1442 149.541 27.7922C150.293 27.4242 150.901 26.9442 151.365 26.3522V28.0322H153.549V19.2482C153.549 18.3682 153.333 17.6002 152.901 16.9442C152.485 16.2722 151.901 15.7522 151.149 15.3842C150.397 15.0002 149.525 14.8082 148.533 14.8082C147.765 14.8082 147.029 14.9442 146.325 15.2162C145.621 15.4882 145.005 15.8642 144.477 16.3442C143.949 16.8082 143.565 17.3362 143.325 17.9282L145.269 18.9362C145.541 18.3282 145.957 17.8322 146.517 17.4482C147.077 17.0642 147.733 16.8722 148.485 16.8722C149.333 16.8722 150.013 17.0962 150.525 17.5442C151.053 17.9762 151.317 18.5442 151.317 19.2482V19.8482L146.901 20.5682C145.445 20.8082 144.373 21.2962 143.685 22.0322C143.013 22.7522 142.677 23.6242 142.677 24.6482C142.677 25.7362 143.077 26.6242 143.877 27.3122C144.693 27.9842 145.733 28.3202 146.997 28.3202ZM145.029 24.5762C145.029 24.0162 145.213 23.5442 145.581 23.1602C145.965 22.7762 146.573 22.5122 147.405 22.3682L151.317 21.7202V22.5362C151.317 23.2562 151.149 23.9122 150.813 24.5042C150.477 25.0962 150.005 25.5682 149.397 25.9202C148.789 26.2562 148.077 26.4242 147.261 26.4242C146.621 26.4242 146.085 26.2482 145.653 25.8962C145.237 25.5442 145.029 25.1042 145.029 24.5762ZM157.009 28.0322H159.241V20.3762C159.241 19.3202 159.537 18.4882 160.129 17.8802C160.721 17.2722 161.473 16.9682 162.385 16.9682C163.297 16.9682 164.041 17.2722 164.617 17.8802C165.193 18.4722 165.481 19.3042 165.481 20.3762V28.0322H167.737V19.6562C167.737 18.7282 167.521 17.9042 167.089 17.1842C166.673 16.4482 166.097 15.8722 165.361 15.4562C164.641 15.0242 163.817 14.8082 162.889 14.8082C162.089 14.8082 161.369 14.9762 160.729 15.3122C160.089 15.6322 159.577 16.0882 159.193 16.6802V15.0962H157.009V28.0322ZM177.099 33.3122C178.299 33.3122 179.363 33.0562 180.291 32.5442C181.235 32.0482 181.971 31.3602 182.499 30.4802C183.027 29.6002 183.291 28.6002 183.291 27.4802V15.0962H181.107V16.8962C180.595 16.2402 179.963 15.7282 179.211 15.3602C178.459 14.9922 177.627 14.8082 176.715 14.8082C175.499 14.8082 174.411 15.0962 173.451 15.6722C172.507 16.2322 171.763 17.0002 171.219 17.9762C170.675 18.9522 170.403 20.0482 170.403 21.2642C170.403 22.4802 170.675 23.5762 171.219 24.5522C171.779 25.5282 172.531 26.3042 173.475 26.8802C174.435 27.4402 175.523 27.7202 176.739 27.7202C177.619 27.7202 178.435 27.5442 179.187 27.1922C179.939 26.8402 180.555 26.3362 181.035 25.6802V27.4802C181.035 28.2642 180.851 28.9282 180.483 29.4722C180.131 30.0322 179.659 30.4482 179.067 30.7202C178.475 31.0082 177.811 31.1522 177.075 31.1522C176.115 31.1522 175.315 30.9362 174.675 30.5042C174.051 30.0882 173.627 29.5762 173.403 28.9682L171.315 29.9282C171.747 30.9362 172.475 31.7522 173.499 32.3762C174.523 33.0002 175.723 33.3122 177.099 33.3122ZM176.931 25.5602C176.131 25.5602 175.411 25.3682 174.771 24.9842C174.147 24.6002 173.651 24.0882 173.283 23.4482C172.931 22.7922 172.755 22.0642 172.755 21.2642C172.755 20.4642 172.939 19.7442 173.307 19.1042C173.675 18.4482 174.171 17.9282 174.795 17.5442C175.435 17.1602 176.147 16.9682 176.931 16.9682C177.699 16.9682 178.395 17.1602 179.019 17.5442C179.643 17.9282 180.131 18.4482 180.483 19.1042C180.851 19.7442 181.035 20.4642 181.035 21.2642C181.035 22.0482 180.851 22.7682 180.483 23.4242C180.131 24.0802 179.643 24.6002 179.019 24.9842C178.395 25.3682 177.699 25.5602 176.931 25.5602ZM192.703 28.3202C194.031 28.3202 195.183 28.0082 196.159 27.3842C197.135 26.7602 197.823 26.0002 198.223 25.1042L196.351 24.1442C195.983 24.7682 195.503 25.2802 194.911 25.6802C194.319 26.0802 193.591 26.2802 192.727 26.2802C192.007 26.2802 191.335 26.1202 190.711 25.8002C190.103 25.4642 189.599 24.9922 189.199 24.3842C188.815 23.7762 188.607 23.0562 188.575 22.2242H198.463C198.543 21.7922 198.583 21.3922 198.583 21.0242C198.583 19.9522 198.343 18.9442 197.863 18.0002C197.383 17.0562 196.687 16.2882 195.775 15.6962C194.879 15.1042 193.791 14.8082 192.511 14.8082C191.311 14.8082 190.239 15.0962 189.295 15.6722C188.351 16.2482 187.599 17.0482 187.039 18.0722C186.495 19.0802 186.223 20.2322 186.223 21.5282C186.223 22.8242 186.503 23.9842 187.063 25.0082C187.623 26.0322 188.391 26.8402 189.367 27.4322C190.343 28.0242 191.455 28.3202 192.703 28.3202ZM192.511 16.8002C193.167 16.8002 193.767 16.9522 194.311 17.2562C194.855 17.5442 195.295 17.9522 195.631 18.4802C195.967 19.0082 196.143 19.6162 196.159 20.3042H188.623C188.783 19.2162 189.231 18.3602 189.967 17.7362C190.703 17.1122 191.551 16.8002 192.511 16.8002Z" fill="#8F9BBA"/>
</svg>
