<svg width="49" height="49" viewBox="0 0 49 49" fill="none" xmlns="http://www.w3.org/2000/svg">
<path d="M24.3613 44.9541C21.6279 44.9541 19.0613 44.4374 16.6613 43.4041C14.2613 42.3708 12.1613 40.9541 10.3613 39.1541C8.56128 37.3541 7.14461 35.2541 6.11128 32.8541C5.07795 30.4541 4.56128 27.8874 4.56128 25.1541C4.56128 22.3874 5.08628 19.7791 6.13628 17.3291C7.18628 14.8791 8.61128 12.7374 10.4113 10.9041C12.2113 9.07077 14.3279 7.62077 16.7613 6.5541C19.1946 5.48743 21.7946 4.9541 24.5613 4.9541C27.3279 4.9541 29.9279 5.48743 32.3613 6.5541C34.7946 7.62077 36.9113 9.07077 38.7113 10.9041C40.5113 12.7374 41.9363 14.8791 42.9863 17.3291C44.0363 19.7791 44.5613 22.3874 44.5613 25.1541V40.8541C44.5613 41.9874 44.1613 42.9541 43.3613 43.7541C42.5613 44.5541 41.5946 44.9541 40.4613 44.9541H24.3613ZM24.3613 41.7041C29.0279 41.7041 33.0279 40.1041 36.3613 36.9041C39.6946 33.7041 41.3613 29.7874 41.3613 25.1541C41.3613 20.3874 39.7363 16.3291 36.4863 12.9791C33.2363 9.6291 29.2613 7.9541 24.5613 7.9541C19.7946 7.9541 15.7696 9.6291 12.4863 12.9791C9.20295 16.3291 7.56128 20.3874 7.56128 25.1541C7.56128 26.1208 7.64461 27.0708 7.81128 28.0041C7.97795 28.9374 8.21128 29.8374 8.51128 30.7041L16.6113 22.6041L23.2113 28.2041L30.9113 20.4541H27.0613V17.4541H36.0613V26.4541H33.0613V22.6041L23.3613 32.2541L16.7613 26.6541L9.86128 33.5541C11.3279 36.0208 13.3363 37.9958 15.8863 39.4791C18.4363 40.9624 21.2613 41.7041 24.3613 41.7041ZM40.5113 42.3041C40.9113 42.3041 41.2529 42.1541 41.5363 41.8541C41.8196 41.5541 41.9613 41.1874 41.9613 40.7541C41.9613 40.3541 41.8113 40.0124 41.5113 39.7291C41.2113 39.4458 40.8613 39.3041 40.4613 39.3041C40.0613 39.3041 39.7113 39.4458 39.4113 39.7291C39.1113 40.0124 38.9613 40.3708 38.9613 40.8041C38.9613 41.2041 39.1113 41.5541 39.4113 41.8541C39.7113 42.1541 40.0779 42.3041 40.5113 42.3041Z" fill="#3D81E7"/>
</svg>
