<svg width="41" height="41" viewBox="0 0 41 41" fill="none" xmlns="http://www.w3.org/2000/svg">
<path d="M39.0143 12.1503C38.0198 9.69667 36.6386 7.58538 34.8154 5.81648C32.9922 3.99052 30.8928 2.56401 28.4618 1.59397C26.0309 0.623924 23.3789 0.110352 20.506 0.110352C17.6331 0.110352 14.9811 0.623924 12.5502 1.59397C10.1193 2.62107 8.01987 3.99052 6.25191 5.81648C4.42871 7.58538 3.04744 9.75373 2.05296 12.1503C1.05849 14.5469 0.561279 17.1717 0.561279 20.0248C0.561279 22.8778 1.05854 25.5026 2.10827 27.9563C3.15799 30.4099 4.53918 32.5212 6.36238 34.3471C8.18559 36.1731 10.285 37.5996 12.716 38.5697C15.1469 39.5968 17.7989 40.1104 20.6718 40.1104C23.5447 40.1104 26.1414 39.5968 28.5723 38.6267C31.0032 37.6567 33.0474 36.2302 34.8706 34.4042C36.6386 32.5783 38.0198 30.4099 39.0695 28.0133C40.064 25.6168 40.5613 22.9349 40.5613 20.1389C40.506 17.2288 40.0088 14.6039 39.0143 12.1503ZM31.0547 25.1495C31.4269 25.5378 31.4254 26.1508 31.0513 26.5372L26.8598 30.8662C26.4669 31.2721 25.816 31.2721 25.423 30.8662L21.228 26.5336C20.8337 26.1263 20.18 26.128 19.7877 26.5371L15.6442 30.859C15.2519 31.2682 14.5983 31.2698 14.2039 30.8625L10.0193 26.5406C9.64389 26.1529 9.64389 25.5372 10.0193 25.1494L14.3077 20.7204C14.6831 20.3326 14.6831 19.7169 14.3077 19.3292L10.0193 14.9001C9.64389 14.5124 9.64389 13.8966 10.0193 13.5089L14.2075 9.18332C14.6005 8.77746 15.2514 8.77746 15.6443 9.18332L19.8428 13.5196C20.2358 13.9254 20.8867 13.9254 21.2797 13.5196L25.4782 9.18331C25.8712 8.77745 26.5221 8.77746 26.9151 9.18332L31.1032 13.5089C31.4787 13.8967 31.4787 14.5124 31.1032 14.9001L26.8116 19.3326C26.4375 19.719 26.436 20.332 26.8082 20.7202L31.0547 25.1495Z" fill="#3D81E7"/>
</svg>
