<svg width="49" height="49" viewBox="0 0 49 49" fill="none" xmlns="http://www.w3.org/2000/svg">
<path d="M11.1113 41.1539C9.45447 41.1539 8.11133 39.8108 8.11133 38.1539V27.7539C8.11133 26.0971 9.45447 24.7539 11.1113 24.7539H12.3613C14.0182 24.7539 15.3613 26.0971 15.3613 27.7539V38.1539C15.3613 39.8108 14.0182 41.1539 12.3613 41.1539H11.1113ZM23.6613 41.1539C22.0045 41.1539 20.6613 39.8108 20.6613 38.1539V11.7539C20.6613 10.0971 22.0045 8.75391 23.6613 8.75391H24.9613C26.6182 8.75391 27.9613 10.0971 27.9613 11.7539V38.1539C27.9613 39.8108 26.6182 41.1539 24.9613 41.1539H23.6613ZM36.2613 41.1539C34.6045 41.1539 33.2613 39.8108 33.2613 38.1539V21.7539C33.2613 20.097 34.6045 18.7539 36.2613 18.7539H37.5113C39.1682 18.7539 40.5113 20.0971 40.5113 21.7539V38.1539C40.5113 39.8108 39.1682 41.1539 37.5113 41.1539H36.2613Z" fill="#3D81E7"/>
</svg>
