<svg width="25" height="24" viewBox="0 0 25 24" fill="none" xmlns="http://www.w3.org/2000/svg">
<g clip-path="url(#clip0_644_5846)">
<path d="M15.8838 1H4.88379C3.78379 1 2.88379 1.9 2.88379 3V16C2.88379 16.55 3.33379 17 3.88379 17C4.43379 17 4.88379 16.55 4.88379 16V4C4.88379 3.45 5.33379 3 5.88379 3H15.8838C16.4338 3 16.8838 2.55 16.8838 2C16.8838 1.45 16.4338 1 15.8838 1ZM19.8838 5H8.88379C7.78379 5 6.88379 5.9 6.88379 7V21C6.88379 22.1 7.78379 23 8.88379 23H19.8838C20.9838 23 21.8838 22.1 21.8838 21V7C21.8838 5.9 20.9838 5 19.8838 5ZM18.8838 21H9.88379C9.33379 21 8.88379 20.55 8.88379 20V8C8.88379 7.45 9.33379 7 9.88379 7H18.8838C19.4338 7 19.8838 7.45 19.8838 8V20C19.8838 20.55 19.4338 21 18.8838 21Z" fill="#3D81E7"/>
</g>
<defs>
<clipPath id="clip0_644_5846">
<rect width="24" height="24" fill="white" transform="translate(0.883789)"/>
</clipPath>
</defs>
</svg>
